<svg width="819" height="968" viewBox="0 0 819 968" fill="none" xmlns="http://www.w3.org/2000/svg">
<mask id="mask0_105_1073" style="mask-type:alpha" maskUnits="userSpaceOnUse" x="0" y="0" width="819" height="968">
<rect width="819" height="968" fill="url(#paint0_linear_105_1073)"/>
</mask>
<g mask="url(#mask0_105_1073)">
<path d="M384.549 280.114C199.703 245.959 31.0661 319.953 7.88767 445.385C-15.2911 570.811 115.765 700.186 300.609 734.347L301.024 734.418C319.219 737.764 336.048 723.567 335.941 705.067C335.887 696.067 336.876 686.9 339.004 677.708C352.701 618.578 410.824 579.28 470.812 588.541C514.346 595.265 548.275 624.935 562.641 663.082C569.734 681.909 593.001 688.893 608.803 676.445C644.928 648.001 669.434 611.493 677.269 569.081C700.451 443.65 569.392 314.274 384.549 280.114Z" fill="#505262"/>
<path d="M388.299 259.821C203.453 225.66 34.8161 299.654 11.6376 425.086C-11.5394 550.513 119.517 679.887 304.362 714.042L304.774 714.119C322.97 717.465 339.799 703.268 339.69 684.767C339.637 675.767 340.626 666.6 342.756 657.41C356.453 598.279 414.575 558.982 474.561 568.242C518.094 574.965 552.024 604.636 566.395 642.785C573.483 661.609 596.749 668.593 612.558 656.147C648.677 627.701 673.182 591.193 681.023 548.783C704.2 423.35 573.147 293.976 388.299 259.821Z" fill="#80848B"/>
<path d="M237.026 594.16C232.907 616.446 211.506 631.167 189.224 627.051C166.941 622.935 152.216 601.532 156.335 579.252C160.453 556.966 181.853 542.244 204.134 546.36C226.418 550.476 241.143 571.879 237.026 594.16ZM147.253 491.866C143.136 514.147 121.735 528.874 99.4511 524.758C77.1695 520.642 62.445 499.239 66.5617 476.959C70.6805 454.672 92.0801 439.951 114.363 444.067C136.645 448.183 151.372 469.586 147.253 491.866ZM211.872 367.966C207.756 390.247 186.354 404.974 164.072 400.852C141.791 396.736 127.063 375.339 131.183 353.053C135.3 330.772 156.701 316.045 178.983 320.167C201.265 324.282 215.991 345.679 211.872 367.966ZM363.998 330.097C359.879 352.377 338.478 367.104 316.198 362.983C293.914 358.866 279.189 337.464 283.306 315.183C287.423 292.902 308.826 278.175 331.108 282.291C353.39 286.413 368.115 307.816 363.998 330.097ZM514.944 369.633C510.829 391.914 489.425 406.64 467.144 402.525C444.864 398.403 430.135 377.006 434.253 354.719C438.37 332.438 459.774 317.712 482.054 321.833C504.338 325.949 519.06 347.352 514.944 369.633ZM624.882 473.394C620.767 495.675 599.363 510.401 577.082 506.286C554.795 502.169 540.075 480.767 544.19 458.486C548.307 436.199 569.709 421.478 591.99 425.594C614.277 429.711 628.998 451.113 624.882 473.394Z" fill="#226DFF"/>
<path d="M303.186 713.824C303.23 713.835 303.253 713.841 303.3 713.846C303.264 713.837 303.223 713.833 303.186 713.824ZM303.904 713.958C304.062 713.992 304.205 714.015 304.363 714.041C304.21 714.016 304.055 713.99 303.904 713.958ZM343.031 656.25L343.053 656.155C343.045 656.184 343.04 656.214 343.031 656.25ZM343.782 653.317C343.79 653.294 343.797 653.265 343.803 653.241C343.796 653.271 343.791 653.288 343.782 653.317ZM343.824 653.165C343.833 653.13 343.837 653.112 343.848 653.077C343.838 653.106 343.831 653.135 343.824 653.165ZM343.959 652.672C343.971 652.632 343.983 652.584 343.996 652.544C343.981 652.59 343.973 652.626 343.959 652.672ZM344.021 652.45C344.029 652.42 344.033 652.403 344.041 652.38C344.037 652.397 344.027 652.426 344.021 652.45ZM344.156 651.964C344.165 651.941 344.169 651.923 344.179 651.894C344.17 651.917 344.163 651.947 344.156 651.964ZM344.404 651.105C344.414 651.076 344.42 651.052 344.429 651.023C344.421 651.046 344.412 651.082 344.404 651.105ZM344.451 650.947C344.46 650.918 344.466 650.894 344.475 650.866C344.467 650.889 344.46 650.918 344.451 650.947ZM344.497 650.789C344.505 650.766 344.514 650.731 344.522 650.708C344.512 650.737 344.506 650.76 344.497 650.789ZM344.755 649.927C344.764 649.898 344.772 649.868 344.78 649.845C344.77 649.874 344.764 649.898 344.755 649.927ZM344.899 649.455C344.91 649.42 344.917 649.403 344.925 649.368C344.918 649.397 344.908 649.426 344.899 649.455ZM345.169 648.595C345.178 648.566 345.186 648.537 345.195 648.508C345.188 648.537 345.177 648.572 345.169 648.595ZM345.267 648.288C345.278 648.253 345.286 648.23 345.295 648.194C345.288 648.224 345.276 648.259 345.267 648.288ZM345.442 647.742C345.455 647.708 345.462 647.679 345.476 647.645C345.466 647.678 345.454 647.71 345.442 647.742ZM345.493 647.586L345.523 647.493C345.513 647.524 345.503 647.555 345.493 647.586ZM345.597 647.274C345.603 647.25 345.616 647.216 345.622 647.192C345.612 647.221 345.606 647.245 345.597 647.274ZM345.65 647.111L345.676 647.037C345.667 647.061 345.658 647.086 345.65 647.111ZM345.829 646.574C345.838 646.551 345.842 646.533 345.849 646.516C345.844 646.533 345.836 646.557 345.829 646.574ZM345.936 646.262C345.942 646.238 345.954 646.21 345.962 646.187C345.95 646.215 345.944 646.239 345.936 646.262ZM345.986 646.112C345.998 646.083 346.006 646.06 346.015 646.031C346.007 646.054 345.998 646.083 345.986 646.112ZM346.091 645.806L346.122 645.719C346.113 645.748 346.1 645.777 346.091 645.806ZM346.142 645.662C346.165 645.598 346.186 645.535 346.208 645.472C346.187 645.529 346.165 645.598 346.142 645.662ZM346.28 645.264C346.29 645.241 346.299 645.212 346.309 645.184C346.301 645.207 346.29 645.241 346.28 645.264ZM346.334 645.114C346.343 645.086 346.355 645.051 346.366 645.022C346.353 645.057 346.343 645.086 346.334 645.114ZM346.385 644.964L346.418 644.872C346.407 644.907 346.399 644.93 346.385 644.964ZM346.497 644.654C346.507 644.625 346.516 644.596 346.528 644.568C346.519 644.597 346.507 644.625 346.497 644.654ZM346.689 644.119C346.699 644.097 346.71 644.062 346.718 644.039C346.708 644.068 346.701 644.091 346.689 644.119ZM346.748 643.958C346.756 643.935 346.766 643.907 346.776 643.884C346.766 643.909 346.756 643.933 346.748 643.958ZM346.802 643.809C346.812 643.78 346.82 643.757 346.832 643.729L346.802 643.809ZM346.856 643.66C346.868 643.631 346.878 643.602 346.887 643.574C346.879 643.597 346.868 643.631 346.856 643.66ZM346.911 643.517C346.922 643.482 346.936 643.448 346.946 643.419C346.935 643.454 346.922 643.482 346.911 643.517ZM347.284 642.52C347.293 642.491 347.307 642.456 347.319 642.428C347.305 642.462 347.296 642.491 347.284 642.52ZM347.387 642.251C347.416 642.171 347.45 642.085 347.48 642.005C347.45 642.085 347.418 642.165 347.387 642.251ZM347.486 641.988C347.5 641.953 347.512 641.925 347.527 641.885L347.486 641.988ZM347.602 641.691C347.616 641.656 347.625 641.627 347.638 641.593C347.627 641.628 347.616 641.656 347.602 641.691ZM348.17 640.26C348.18 640.231 348.193 640.196 348.205 640.168L348.17 640.26ZM348.443 639.582C348.455 639.554 348.469 639.526 348.483 639.492C348.471 639.52 348.455 639.554 348.443 639.582ZM348.625 639.145C348.641 639.112 348.654 639.077 348.667 639.043C348.654 639.077 348.64 639.111 348.625 639.145ZM348.685 639.004C348.701 638.97 348.715 638.93 348.731 638.896L348.685 639.004ZM348.738 638.879C348.791 638.754 348.841 638.629 348.898 638.499C348.845 638.624 348.788 638.754 348.738 638.879ZM348.91 638.471C348.923 638.437 348.939 638.403 348.953 638.369C348.941 638.397 348.923 638.437 348.91 638.471ZM348.971 638.323C348.987 638.289 349 638.255 349.016 638.221C349.003 638.256 348.987 638.289 348.971 638.323ZM349.099 638.023C349.113 637.989 349.127 637.961 349.139 637.933C349.126 637.963 349.113 637.993 349.099 638.023ZM349.161 637.882C349.177 637.848 349.191 637.814 349.203 637.786C349.189 637.82 349.179 637.842 349.161 637.882ZM349.52 637.057C349.532 637.028 349.543 637.006 349.556 636.972L349.52 637.057ZM349.651 636.757C349.665 636.729 349.676 636.707 349.688 636.679L349.651 636.757ZM349.71 636.628C349.742 636.56 349.772 636.486 349.805 636.413C349.772 636.486 349.743 636.555 349.71 636.628ZM349.882 636.238L349.913 636.177C349.902 636.199 349.891 636.222 349.882 636.238ZM350.215 635.507C350.242 635.451 350.27 635.389 350.297 635.327C350.27 635.389 350.243 635.445 350.215 635.507ZM350.581 634.715C350.596 634.687 350.611 634.653 350.623 634.625C350.609 634.653 350.597 634.681 350.581 634.715ZM350.644 634.58L350.695 634.474C350.677 634.507 350.66 634.546 350.644 634.58ZM350.695 634.474C350.752 634.35 350.814 634.221 350.875 634.093C350.814 634.221 350.754 634.344 350.695 634.474ZM350.959 633.913C350.973 633.885 350.989 633.852 351 633.823C350.987 633.858 350.974 633.879 350.959 633.913ZM351.217 633.376L351.398 633.001C351.337 633.126 351.276 633.251 351.217 633.376ZM351.411 632.979C351.426 632.946 351.443 632.906 351.462 632.873C351.442 632.912 351.428 632.94 351.411 632.979ZM351.944 631.897C351.961 631.864 351.977 631.83 351.993 631.796C351.977 631.83 351.959 631.863 351.944 631.897ZM352.012 631.757C352.03 631.724 352.05 631.685 352.065 631.651L352.012 631.757ZM352.485 630.829C352.505 630.79 352.524 630.751 352.542 630.718L352.485 630.829ZM352.558 630.684L352.613 630.579C352.594 630.618 352.576 630.651 352.558 630.684ZM352.627 630.551C352.647 630.512 352.665 630.479 352.683 630.446C352.666 630.473 352.646 630.518 352.627 630.551ZM352.703 630.407C352.72 630.374 352.74 630.335 352.758 630.302C352.74 630.335 352.718 630.373 352.703 630.407ZM352.767 630.285C352.877 630.068 352.99 629.858 353.103 629.642C352.992 629.852 352.875 630.074 352.767 630.285ZM353.601 628.707C353.623 628.669 353.646 628.624 353.664 628.591C353.644 628.631 353.623 628.669 353.601 628.707ZM353.677 628.57C353.696 628.531 353.718 628.492 353.74 628.454C353.718 628.492 353.699 628.531 353.677 628.57ZM353.75 628.431C353.769 628.398 353.79 628.36 353.81 628.321C353.791 628.358 353.771 628.395 353.75 628.431ZM353.894 628.166C354.01 627.957 354.127 627.742 354.245 627.533C354.125 627.748 354.01 627.957 353.894 628.166ZM354.254 627.517L354.319 627.401C354.298 627.44 354.272 627.483 354.254 627.517ZM354.326 627.384C354.348 627.346 354.368 627.313 354.391 627.269L354.326 627.384ZM354.403 627.253C354.544 627 354.687 626.741 354.828 626.494C354.685 626.747 354.545 626.994 354.403 627.253ZM354.841 626.472C354.863 626.434 354.881 626.401 354.906 626.357L354.841 626.472ZM354.914 626.347C354.937 626.302 354.958 626.27 354.98 626.225L354.914 626.347ZM354.988 626.215C355.183 625.875 355.384 625.524 355.582 625.191C355.381 625.529 355.187 625.869 354.988 626.215ZM355.588 625.18C375.602 591.027 412.277 568.624 452.272 566.985C452.264 566.99 452.27 566.991 452.264 566.99C412.275 568.63 375.6 591.026 355.588 625.18Z" fill="#1F1E25"/>
<path d="M286.734 710.457C298.091 692.772 309.594 674.931 320.977 657.359L320.975 657.359C321.707 656.232 322.434 655.109 323.163 653.982C324.561 651.83 325.958 649.672 327.348 647.531C328.589 645.616 329.827 643.712 331.065 641.802C332.371 639.791 333.674 637.785 334.972 635.79C336.05 634.128 337.114 632.489 338.187 630.839C339.698 628.515 341.206 626.196 342.708 623.889C343.547 622.6 344.376 621.328 345.211 620.045C346.886 617.474 348.556 614.907 350.211 612.369L352.379 609.043C354.065 606.461 355.744 603.885 357.405 601.341C358.209 600.113 358.999 598.9 359.796 597.683L364.475 590.521L366.598 587.278C368.258 584.741 369.911 582.214 371.539 579.731C372.144 578.804 372.734 577.905 373.337 576.984C374.934 574.549 376.529 572.115 378.093 569.729C378.939 568.442 379.761 567.187 380.599 565.911C381.953 563.848 383.309 561.786 384.632 559.766C385.362 558.657 386.064 557.592 386.785 556.493C388.195 554.351 389.606 552.202 390.977 550.119C391.61 549.155 392.218 548.235 392.842 547.288L396.965 541.028C397.837 539.71 398.67 538.445 399.523 537.154C400.548 535.599 401.587 534.022 402.583 532.515C403.364 531.332 404.11 530.208 404.874 529.051C411.452 519.098 417.405 510.124 422.483 502.517C424.315 499.769 426.16 497.029 428.017 494.297C428.549 493.514 429.052 492.788 429.575 492.022C430.82 490.202 432.064 488.381 433.264 486.65C433.929 485.688 434.562 484.793 435.215 483.859C436.219 482.424 437.234 480.966 438.207 479.592C438.929 478.575 439.616 477.618 440.32 476.635C441.19 475.416 442.067 474.181 442.91 473.019C443.633 472.021 444.323 471.084 445.025 470.125C445.798 469.064 446.582 467.994 447.333 466.978C448.049 466.009 448.737 465.097 449.433 464.167C450.133 463.239 450.84 462.293 451.516 461.403C452.224 460.47 452.902 459.593 453.587 458.704C454.205 457.9 454.827 457.09 455.428 456.325C456.116 455.443 456.808 454.565 457.503 453.69C458.04 453.015 458.582 452.329 459.102 451.682C459.777 450.845 460.455 450.011 461.137 449.181C461.615 448.598 462.094 448.009 462.558 447.448C463.238 446.634 463.894 445.851 464.546 445.08C464.957 444.593 465.365 444.112 465.764 443.647C466.44 442.857 467.096 442.106 467.743 441.371L468.745 440.235C469.416 439.481 470.071 438.755 470.709 438.055L471.517 437.179C472.184 436.461 472.834 435.764 473.466 435.107L474.064 434.485C474.732 433.793 475.382 433.128 476.011 432.508L476.416 432.107C477.085 431.44 477.735 430.813 478.361 430.223L478.561 430.035C479.234 429.406 479.883 428.81 480.501 428.262L480.51 428.251C489.158 420.585 492.98 420.3 494.354 420.641C494.608 420.704 494.782 420.785 494.878 420.852L491.718 418.546C486.204 414.522 484.99 406.787 489.011 401.272L489.183 401.033C489.37 400.785 489.561 400.545 489.757 400.311C492.559 399.191 495.227 397.774 497.708 396.079C499.178 395.912 500.677 396.002 502.14 396.365C502.335 396.413 502.528 396.468 502.72 396.528L559.677 327.401C572.835 336.128 585.115 345.439 596.462 355.232L548.33 429.017C551.655 432.022 553.047 436.506 552.172 440.711C550.387 442.994 548.85 445.461 547.59 448.071C546.107 449.245 544.375 450.063 542.526 450.464C540.678 450.865 538.763 450.838 536.927 450.384C535.417 450.009 533.961 449.341 532.629 448.372L529.463 446.064C530.631 447.037 539.072 457.937 473.858 539.969C467.729 547.679 460.433 556.814 452.271 566.987C412.277 568.626 375.602 591.029 355.587 625.182L355.582 625.193C355.384 625.526 355.182 625.877 354.988 626.217C354.986 626.223 354.984 626.222 354.98 626.228C354.957 626.272 354.937 626.304 354.914 626.349C354.91 626.354 354.908 626.354 354.906 626.36C354.88 626.403 354.863 626.436 354.841 626.475L354.828 626.497C354.686 626.743 354.544 627.002 354.403 627.255L354.391 627.271C354.368 627.315 354.348 627.348 354.326 627.386C354.324 627.392 354.32 627.398 354.319 627.404L354.254 627.519C354.25 627.524 354.246 627.53 354.245 627.535C354.127 627.744 354.01 627.959 353.894 628.169C353.872 628.211 353.85 628.254 353.826 628.296C353.822 628.301 353.816 628.318 353.809 628.323C353.79 628.362 353.768 628.4 353.75 628.433C353.746 628.44 353.742 628.448 353.74 628.456C353.718 628.494 353.696 628.533 353.677 628.572C353.672 628.579 353.667 628.586 353.664 628.594C353.646 628.627 353.623 628.671 353.601 628.71L353.319 629.234L353.317 629.24C353.3 629.274 353.278 629.312 353.258 629.351C353.253 629.362 353.246 629.373 353.24 629.384C353.222 629.417 353.203 629.456 353.183 629.495C353.181 629.495 353.176 629.506 353.172 629.511C353.153 629.55 353.131 629.589 353.111 629.628C353.106 629.639 353.106 629.639 353.103 629.644C352.99 629.86 352.877 630.07 352.766 630.287C352.763 630.292 352.763 630.292 352.758 630.304C352.74 630.337 352.72 630.376 352.702 630.409C352.693 630.426 352.692 630.431 352.683 630.448C352.663 630.483 352.645 630.518 352.627 630.553L352.613 630.581L352.558 630.686L352.542 630.72C352.524 630.753 352.505 630.792 352.485 630.831C352.419 630.959 352.353 631.086 352.289 631.215L352.276 631.236C352.262 631.268 352.246 631.3 352.229 631.331C352.222 631.347 352.215 631.361 352.206 631.375C352.19 631.409 352.172 631.442 352.156 631.476C352.151 631.487 352.142 631.504 352.135 631.521L352.085 631.615L352.065 631.654C352.049 631.69 352.031 631.725 352.012 631.76C352.007 631.771 352 631.788 351.993 631.799C351.977 631.832 351.961 631.866 351.944 631.899L351.929 631.927C351.847 632.088 351.768 632.25 351.688 632.412C351.681 632.426 351.674 632.442 351.668 632.457C351.651 632.484 351.636 632.518 351.621 632.546C351.614 632.563 351.606 632.58 351.596 632.596C351.581 632.63 351.567 632.657 351.551 632.691C351.542 632.707 351.535 632.725 351.528 632.735C351.512 632.769 351.496 632.803 351.482 632.83C351.476 632.848 351.467 632.864 351.461 632.875C351.443 632.908 351.426 632.948 351.411 632.982L351.398 633.004L351.216 633.378C351.215 633.384 351.211 633.389 351.211 633.389C351.196 633.423 351.177 633.456 351.162 633.49L351.14 633.541C351.125 633.568 351.111 633.596 351.099 633.625L351.069 633.686C351.055 633.714 351.043 633.742 351.029 633.77L351 633.825C350.987 633.856 350.974 633.886 350.958 633.915C350.952 633.932 350.942 633.949 350.932 633.971C350.918 633.999 350.904 634.027 350.89 634.061L350.875 634.095C350.813 634.224 350.752 634.352 350.695 634.476L350.644 634.582C350.637 634.599 350.629 634.61 350.623 634.627C350.61 634.658 350.596 634.688 350.581 634.717C350.572 634.733 350.563 634.757 350.554 634.773C350.541 634.801 350.529 634.829 350.514 634.857C350.507 634.878 350.497 634.899 350.487 634.919C350.475 634.947 350.46 634.975 350.448 635.003C350.438 635.026 350.429 635.043 350.419 635.065C350.403 635.099 350.392 635.121 350.381 635.15C350.37 635.172 350.363 635.189 350.354 635.206C350.338 635.239 350.327 635.268 350.313 635.295L350.297 635.329C350.269 635.391 350.241 635.453 350.215 635.509C350.205 635.532 350.193 635.56 350.18 635.582C350.172 635.605 350.161 635.627 350.151 635.65C350.139 635.678 350.126 635.7 350.114 635.728L350.082 635.802C350.07 635.83 350.061 635.847 350.047 635.881C350.037 635.903 350.027 635.926 350.016 635.948C350.001 635.976 349.991 635.998 349.979 636.027L349.948 636.094L349.912 636.179L349.882 636.241L349.848 636.32C349.837 636.342 349.821 636.376 349.813 636.399C349.81 636.404 349.806 636.41 349.805 636.416C349.772 636.489 349.741 636.563 349.71 636.63C349.703 636.647 349.694 636.664 349.688 636.681C349.676 636.707 349.664 636.734 349.65 636.759C349.64 636.782 349.632 636.805 349.622 636.827L349.587 636.906L349.556 636.974C349.542 637.008 349.532 637.031 349.52 637.059C349.51 637.081 349.503 637.098 349.493 637.121C349.48 637.149 349.466 637.177 349.455 637.206C349.446 637.229 349.437 637.245 349.427 637.267C349.413 637.302 349.403 637.324 349.391 637.353L349.363 637.414L349.328 637.5L349.31 637.539C349.279 637.606 349.248 637.68 349.218 637.754C349.214 637.759 349.208 637.777 349.202 637.788C349.19 637.816 349.177 637.85 349.161 637.884C349.153 637.901 349.146 637.918 349.139 637.935C349.127 637.963 349.112 637.991 349.099 638.025C349.092 638.042 349.086 638.06 349.075 638.082L349.035 638.172L349.016 638.224C349 638.257 348.986 638.292 348.971 638.325L348.952 638.371C348.939 638.405 348.923 638.439 348.909 638.473C348.904 638.484 348.901 638.49 348.898 638.501C348.841 638.631 348.79 638.756 348.737 638.881C348.734 638.886 348.732 638.892 348.731 638.898C348.715 638.932 348.7 638.972 348.685 639.006L348.667 639.045C348.654 639.08 348.641 639.114 348.625 639.148C348.622 639.159 348.611 639.182 348.606 639.193C348.593 639.227 348.579 639.261 348.564 639.295L348.545 639.341C348.532 639.375 348.52 639.403 348.507 639.438C348.498 639.454 348.489 639.477 348.483 639.494C348.469 639.528 348.455 639.556 348.443 639.585C348.439 639.602 348.43 639.619 348.423 639.636L348.384 639.733C348.381 639.738 348.378 639.75 348.374 639.755C348.343 639.829 348.315 639.904 348.284 639.977L348.266 640.023L348.229 640.114C348.222 640.131 348.214 640.154 348.204 640.17C348.192 640.201 348.18 640.231 348.17 640.262C348.161 640.279 348.152 640.302 348.144 640.325L348.109 640.41L348.087 640.467C348.071 640.501 348.061 640.529 348.049 640.558C348.039 640.58 348.031 640.603 348.024 640.621L347.987 640.711L347.967 640.763C347.921 640.877 347.875 640.997 347.83 641.111C347.824 641.122 347.821 641.134 347.815 641.151L347.778 641.236L347.754 641.305C347.744 641.327 347.734 641.356 347.722 641.385C347.712 641.407 347.703 641.43 347.696 641.453C347.684 641.482 347.672 641.51 347.66 641.545C347.651 641.561 347.645 641.578 347.638 641.595C347.625 641.63 347.615 641.659 347.602 641.693L347.581 641.744L347.542 641.847C347.536 641.858 347.533 641.87 347.527 641.887C347.512 641.927 347.5 641.956 347.486 641.99L347.48 642.007C347.45 642.087 347.416 642.173 347.387 642.253C347.381 642.262 347.377 642.272 347.375 642.282L347.334 642.384C347.328 642.401 347.325 642.413 347.318 642.43C347.306 642.46 347.294 642.491 347.283 642.522C347.275 642.545 347.264 642.567 347.257 642.59C347.247 642.619 347.237 642.642 347.225 642.677L347.201 642.733C347.19 642.768 347.179 642.796 347.169 642.825L347.146 642.889C347.133 642.919 347.121 642.949 347.111 642.98C347.104 642.997 347.098 643.014 347.092 643.026L346.957 643.393C346.952 643.404 346.95 643.41 346.945 643.421C346.936 643.45 346.922 643.484 346.911 643.519C346.901 643.537 346.893 643.556 346.887 643.576C346.877 643.605 346.868 643.634 346.856 643.662L346.831 643.731C346.82 643.757 346.81 643.784 346.802 643.811L346.776 643.886C346.765 643.909 346.756 643.938 346.748 643.961C346.738 643.99 346.727 644.012 346.718 644.041C346.709 644.064 346.699 644.099 346.688 644.121C346.684 644.139 346.672 644.167 346.664 644.19C346.655 644.218 346.645 644.244 346.634 644.271C346.629 644.288 346.621 644.311 346.616 644.323L346.545 644.518C346.539 644.535 346.535 644.553 346.528 644.57C346.516 644.598 346.506 644.627 346.497 644.656L346.473 644.719C346.462 644.754 346.451 644.783 346.441 644.811L346.418 644.875L346.385 644.967C346.378 644.984 346.372 645.007 346.366 645.025C346.354 645.053 346.343 645.088 346.333 645.117L346.309 645.186C346.299 645.215 346.289 645.244 346.279 645.266L346.253 645.341L346.226 645.422C346.219 645.439 346.215 645.457 346.208 645.474C346.185 645.537 346.164 645.601 346.141 645.664L346.122 645.722C346.112 645.751 346.102 645.779 346.091 645.808C346.085 645.832 346.077 645.855 346.069 645.878C346.06 645.905 346.05 645.932 346.039 645.958C346.03 645.983 346.022 646.008 346.015 646.033C346.005 646.062 345.998 646.085 345.986 646.114C345.98 646.137 345.97 646.166 345.962 646.189C345.954 646.212 345.942 646.241 345.936 646.264L345.908 646.345C345.9 646.37 345.892 646.395 345.883 646.42C345.873 646.453 345.861 646.486 345.848 646.518C345.842 646.535 345.837 646.553 345.829 646.576C345.818 646.611 345.807 646.645 345.794 646.68C345.781 646.721 345.765 646.767 345.752 646.807C345.743 646.832 345.735 646.857 345.726 646.882L345.701 646.957C345.693 646.987 345.684 647.016 345.675 647.039L345.649 647.114L345.622 647.195C345.616 647.218 345.603 647.252 345.597 647.276L345.572 647.345C345.563 647.374 345.555 647.403 345.543 647.432C345.537 647.455 345.529 647.478 345.523 647.496L345.493 647.588C345.488 647.606 345.48 647.629 345.476 647.647C345.462 647.681 345.455 647.71 345.441 647.745L345.435 647.768C345.409 647.843 345.385 647.925 345.357 648.006C345.354 648.017 345.351 648.029 345.346 648.04L345.314 648.139C345.308 648.162 345.301 648.18 345.295 648.197C345.286 648.232 345.278 648.255 345.267 648.29C345.259 648.313 345.254 648.331 345.246 648.354L345.216 648.446C345.211 648.464 345.203 648.487 345.195 648.51C345.185 648.539 345.178 648.569 345.168 648.597C345.16 648.62 345.154 648.644 345.146 648.667C345.137 648.696 345.127 648.725 345.12 648.755C345.111 648.779 345.103 648.805 345.096 648.83L345.068 648.911C345.063 648.934 345.056 648.952 345.049 648.981C345.031 649.033 345.014 649.091 344.996 649.143C344.989 649.173 344.982 649.19 344.974 649.213C344.967 649.243 344.957 649.271 344.947 649.3C344.942 649.324 344.933 649.347 344.925 649.37C344.916 649.405 344.91 649.422 344.899 649.457C344.893 649.481 344.885 649.504 344.879 649.528C344.869 649.557 344.86 649.585 344.852 649.615C344.844 649.638 344.838 649.662 344.83 649.685C344.82 649.714 344.811 649.742 344.803 649.772C344.795 649.795 344.788 649.824 344.78 649.847C344.771 649.871 344.764 649.9 344.755 649.929C344.749 649.953 344.739 649.981 344.731 650.004C344.724 650.034 344.716 650.057 344.708 650.087C344.7 650.11 344.694 650.133 344.686 650.156C344.669 650.214 344.652 650.273 344.633 650.331C344.627 650.354 344.624 650.366 344.616 650.389C344.609 650.419 344.599 650.448 344.59 650.477C344.584 650.5 344.576 650.523 344.568 650.553C344.56 650.576 344.553 650.605 344.545 650.628C344.537 650.658 344.529 650.681 344.522 650.71C344.513 650.733 344.505 650.769 344.496 650.792C344.491 650.815 344.481 650.844 344.475 650.868C344.465 650.897 344.46 650.92 344.45 650.949C344.445 650.973 344.436 650.996 344.429 651.025C344.419 651.054 344.413 651.078 344.404 651.107C344.396 651.136 344.392 651.154 344.382 651.183C344.377 651.206 344.365 651.241 344.357 651.264C344.351 651.288 344.344 651.317 344.336 651.34L344.288 651.504C344.282 651.527 344.276 651.551 344.268 651.574C344.262 651.598 344.255 651.627 344.246 651.656C344.24 651.68 344.231 651.703 344.224 651.732C344.218 651.756 344.209 651.785 344.203 651.808C344.192 651.843 344.186 651.867 344.178 651.896C344.169 651.925 344.164 651.943 344.156 651.966C344.147 652.001 344.139 652.024 344.132 652.054C344.126 652.077 344.116 652.106 344.11 652.13C344.103 652.159 344.093 652.188 344.086 652.218L344.067 652.288C344.058 652.324 344.05 652.347 344.041 652.382C344.033 652.405 344.028 652.423 344.021 652.452C344.014 652.482 344.004 652.511 343.995 652.546C343.983 652.587 343.971 652.634 343.958 652.675C343.951 652.704 343.941 652.733 343.934 652.763C343.928 652.786 343.918 652.815 343.913 652.839C343.905 652.868 343.898 652.897 343.89 652.92L343.869 653.003C343.861 653.026 343.854 653.056 343.848 653.079C343.837 653.114 343.832 653.132 343.823 653.167L343.803 653.243C343.797 653.267 343.789 653.297 343.781 653.32L343.759 653.408C343.753 653.432 343.744 653.461 343.738 653.484C343.731 653.514 343.725 653.537 343.715 653.566L343.696 653.643C343.689 653.672 343.678 653.707 343.67 653.737C343.66 653.778 343.651 653.813 343.639 653.854L343.612 653.96C343.604 653.983 343.6 654.001 343.595 654.019C343.586 654.054 343.578 654.089 343.568 654.118L343.55 654.189C343.542 654.224 343.536 654.248 343.525 654.283L343.485 654.442C343.479 654.466 343.471 654.489 343.464 654.518L343.424 654.678C343.417 654.707 343.408 654.742 343.398 654.771L343.325 655.066L343.301 655.154L343.052 656.157L343.031 656.252L342.962 656.529C342.958 656.547 342.954 656.571 342.948 656.595L342.907 656.76C342.9 656.789 342.893 656.825 342.886 656.855L342.87 656.92C342.861 656.955 342.852 656.991 342.846 657.026L342.805 657.192C342.803 657.21 342.797 657.233 342.793 657.251C342.78 657.304 342.769 657.358 342.756 657.411C341.57 662.519 340.723 667.7 340.222 672.92C339.843 676.891 339.667 680.849 339.69 684.768C339.722 690.012 338.391 694.911 336.053 699.165C330.147 709.911 317.812 716.518 304.774 714.12L304.362 714.043C304.205 714.017 304.062 713.994 303.903 713.961L303.873 713.953C303.737 713.932 303.606 713.906 303.471 713.878C303.415 713.871 303.357 713.856 303.3 713.849C303.252 713.843 303.229 713.837 303.186 713.826C297.652 712.791 292.169 711.662 286.734 710.457Z" fill="#33343B"/>
<path d="M489.757 400.309C491.837 397.857 494.705 396.421 497.709 396.077C495.221 397.774 492.554 399.193 489.757 400.309ZM547.59 448.069C548.864 445.436 550.403 442.968 552.173 440.709C551.832 442.359 551.137 443.971 550.076 445.423L549.898 445.661C549.222 446.589 548.447 447.393 547.59 448.069Z" fill="#61481A"/>
<path d="M185.47 373.693C176.731 371.524 171.087 362.896 172.744 353.926C174.467 344.609 183.417 338.452 192.736 340.17C193.084 340.238 193.428 340.311 193.767 340.395C202.505 342.564 208.15 351.192 206.493 360.162C204.768 369.484 195.818 375.642 186.5 373.917C186.154 373.854 185.81 373.78 185.47 373.693ZM337.326 337.272C328.588 335.103 322.945 326.469 324.601 317.499C326.324 308.183 335.273 302.025 344.594 303.744C344.94 303.811 345.286 303.884 345.624 303.968C354.363 306.137 360.007 314.765 358.348 323.735C356.626 333.058 347.675 339.215 338.358 337.491C338.009 337.429 337.665 337.356 337.326 337.272ZM480.652 369.068C471.916 366.899 466.269 358.271 467.928 349.301C469.649 339.984 478.601 333.821 487.919 335.545C488.268 335.607 488.613 335.686 488.951 335.77C497.69 337.939 503.335 346.567 501.672 355.536C499.954 364.854 491.002 371.017 481.685 369.293C481.335 369.231 480.991 369.152 480.652 369.068ZM112.36 489.48C103.622 487.311 97.977 478.683 99.6337 469.713C101.356 460.39 110.306 454.232 119.627 455.957C119.976 456.019 120.318 456.098 120.657 456.182C129.395 458.351 135.04 466.979 133.383 475.949C131.66 485.265 122.709 491.423 113.39 489.704C113.044 489.641 112.7 489.566 112.36 489.48ZM211.647 594.342C202.909 592.173 197.264 583.545 198.921 574.575C200.642 565.258 209.594 559.094 218.914 560.819C219.262 560.887 219.606 560.96 219.944 561.044C228.682 563.213 234.327 571.841 232.671 580.811C230.946 590.133 221.995 596.29 212.678 594.566C212.332 594.503 211.988 594.428 211.647 594.342Z" fill="#F5C868"/>
<path d="M711.157 339.849C711.157 339.849 772.857 323.64 787.729 278.616C794.237 251.436 787.988 226.257 787.988 226.257L773.611 252.36C773.611 252.36 780.422 207.439 754.335 178.444C728.253 149.45 734.486 157.315 734.486 157.315C734.486 157.315 752.14 198.79 708.534 249.476C664.928 300.161 696.822 329.402 696.822 329.402L711.157 339.849Z" fill="#226DFF"/>
<path d="M712.466 320.195C712.466 320.195 715.152 267.368 744.33 245.866C705.949 275.63 692.539 303.87 693.907 329.716L712.466 320.195Z" fill="#5095D6"/>
<path d="M683.754 323.644C690.943 315.145 703.472 313.64 712.466 320.194L712.63 320.316L712.789 320.431C721.782 326.99 724.186 339.379 718.291 348.825L655.329 449.709L631.142 432.082L606.962 414.45L683.754 323.644Z" fill="white"/>
<path d="M596.714 437.946L637.625 467.772C643.139 471.796 650.874 470.585 654.892 465.069L655.07 464.832C659.089 459.31 657.878 451.576 652.362 447.558L611.451 417.732C605.937 413.708 598.203 414.919 594.177 420.439L594.007 420.673C589.981 426.193 591.193 433.927 596.714 437.946Z" fill="#C3C4C6"/>
<path d="M599.991 440.337L617.168 452.855L634.342 465.384C634.342 465.384 647.991 472.411 578.853 559.374C527.469 624.011 396.467 785.59 322.874 871.028C315.99 879.02 303.553 869.952 309.055 860.954C367.892 764.757 481.659 590.608 527.48 521.917C589.131 429.494 599.991 440.337 599.991 440.337Z" fill="#25252D"/>
<path d="M410.947 766.108C378.584 805.28 347.509 842.424 322.874 871.028C315.99 879.02 303.553 869.952 309.055 860.954C328.752 828.751 354.611 787.807 382.008 745.009L410.947 766.108Z" fill="white"/>
<path d="M527.811 521.418L527.868 521.338C527.851 521.359 527.829 521.397 527.811 521.418ZM527.977 521.177L528.039 521.08C528.018 521.112 527.999 521.139 527.977 521.177Z" fill="#DDDDDD"/>
<path d="M425.967 676.764C466.469 614.236 505.089 555.481 527.48 521.917C527.533 521.83 527.59 521.751 527.643 521.664C527.661 521.643 527.671 521.627 527.689 521.606C527.73 521.541 527.771 521.476 527.811 521.417C527.829 521.397 527.851 521.358 527.868 521.338C527.901 521.283 527.939 521.23 527.977 521.177C527.999 521.138 528.018 521.112 528.039 521.079L528.158 520.902C528.168 520.886 528.171 520.874 528.187 520.859C528.23 520.789 528.28 520.713 528.33 520.638C528.339 520.628 528.34 520.622 528.349 520.611C528.407 520.532 528.458 520.451 528.515 520.371C557.454 477.129 575.025 456.955 585.506 447.652C585.216 448.343 517.732 607.304 425.974 676.76L425.967 676.764Z" fill="#484A5C"/>
</g>
<defs>
<linearGradient id="paint0_linear_105_1073" x1="344.064" y1="252" x2="499.396" y2="705.361" gradientUnits="userSpaceOnUse">
<stop stop-color="#D9D9D9"/>
<stop offset="1" stop-color="#D9D9D9" stop-opacity="0"/>
</linearGradient>
</defs>
</svg>
